<mxfile host="app.diagrams.net" modified="2023-04-24T03:30:36.693Z" agent="Mozilla/5.0 (X11; Ubuntu; Linux x86_64; rv:109.0) Gecko/20100101 Firefox/112.0" etag="__Y771vrqXdJt1EIYZlt" version="21.1.8" type="device">
  <diagram id="C5RBs43oDa-KdzZeNtuy" name="Page-1">
    <mxGraphModel dx="1453" dy="1807" grid="1" gridSize="10" guides="1" tooltips="1" connect="1" arrows="1" fold="1" page="1" pageScale="1" pageWidth="827" pageHeight="1169" math="0" shadow="0">
      <root>
        <mxCell id="WIyWlLk6GJQsqaUBKTNV-0" />
        <mxCell id="WIyWlLk6GJQsqaUBKTNV-1" parent="WIyWlLk6GJQsqaUBKTNV-0" />
        <mxCell id="zkfFHV4jXpPFQw0GAbJ--13" value="Curso" style="swimlane;fontStyle=0;align=center;verticalAlign=top;childLayout=stackLayout;horizontal=1;startSize=26;horizontalStack=0;resizeParent=1;resizeLast=0;collapsible=1;marginBottom=0;rounded=0;shadow=0;strokeWidth=1;swimlaneLine=1;" parent="WIyWlLk6GJQsqaUBKTNV-1" vertex="1">
          <mxGeometry x="450" y="-80" width="130" height="70" as="geometry">
            <mxRectangle x="340" y="380" width="170" height="26" as="alternateBounds" />
          </mxGeometry>
        </mxCell>
        <mxCell id="VukwovRFUjxwsNXura6--0" value="&lt;div align=&quot;center&quot;&gt;&lt;b&gt;id_curso&lt;/b&gt;&lt;/div&gt;&lt;div align=&quot;center&quot;&gt;campus&lt;br&gt;&lt;/div&gt;" style="text;html=1;align=center;verticalAlign=middle;resizable=0;points=[];autosize=1;strokeColor=none;fillColor=none;" parent="zkfFHV4jXpPFQw0GAbJ--13" vertex="1">
          <mxGeometry y="26" width="130" height="40" as="geometry" />
        </mxCell>
        <mxCell id="VukwovRFUjxwsNXura6--56" style="edgeStyle=orthogonalEdgeStyle;shape=link;rounded=0;orthogonalLoop=1;jettySize=auto;html=1;exitX=0.5;exitY=1;exitDx=0;exitDy=0;entryX=0.5;entryY=0;entryDx=0;entryDy=0;labelBackgroundColor=default;strokeColor=default;fontFamily=Helvetica;fontSize=11;fontColor=default;endArrow=none;endFill=0;" parent="WIyWlLk6GJQsqaUBKTNV-1" source="VukwovRFUjxwsNXura6--2" target="VukwovRFUjxwsNXura6--4" edge="1">
          <mxGeometry relative="1" as="geometry" />
        </mxCell>
        <mxCell id="VukwovRFUjxwsNXura6--71" style="edgeStyle=orthogonalEdgeStyle;shape=connector;rounded=0;orthogonalLoop=1;jettySize=auto;html=1;exitX=1;exitY=0.5;exitDx=0;exitDy=0;entryX=-0.005;entryY=0.342;entryDx=0;entryDy=0;entryPerimeter=0;labelBackgroundColor=default;strokeColor=default;fontFamily=Helvetica;fontSize=11;fontColor=default;endArrow=classic;endFill=1;" parent="WIyWlLk6GJQsqaUBKTNV-1" source="VukwovRFUjxwsNXura6--2" target="VukwovRFUjxwsNXura6--0" edge="1">
          <mxGeometry relative="1" as="geometry" />
        </mxCell>
        <mxCell id="VukwovRFUjxwsNXura6--2" value="Tem" style="rhombus;whiteSpace=wrap;html=1;fontFamily=Helvetica;fontSize=11;fontColor=default;" parent="WIyWlLk6GJQsqaUBKTNV-1" vertex="1">
          <mxGeometry x="160" y="-80" width="80" height="80" as="geometry" />
        </mxCell>
        <mxCell id="VukwovRFUjxwsNXura6--4" value="Disciplina" style="swimlane;fontStyle=0;align=center;verticalAlign=top;childLayout=stackLayout;horizontal=1;startSize=26;horizontalStack=0;resizeParent=1;resizeLast=0;collapsible=1;marginBottom=0;rounded=0;shadow=0;strokeWidth=1;swimlaneLine=1;" parent="WIyWlLk6GJQsqaUBKTNV-1" vertex="1">
          <mxGeometry x="135" y="490" width="130" height="86" as="geometry">
            <mxRectangle x="340" y="380" width="170" height="26" as="alternateBounds" />
          </mxGeometry>
        </mxCell>
        <mxCell id="VukwovRFUjxwsNXura6--5" value="&lt;div align=&quot;center&quot;&gt;&lt;b&gt;id_disciplina&lt;/b&gt;&lt;/div&gt;&lt;div align=&quot;center&quot;&gt;nome&lt;/div&gt;&lt;div align=&quot;center&quot;&gt;descricao&lt;br&gt;&lt;/div&gt;" style="text;html=1;align=center;verticalAlign=middle;resizable=0;points=[];autosize=1;strokeColor=none;fillColor=none;" parent="VukwovRFUjxwsNXura6--4" vertex="1">
          <mxGeometry y="26" width="130" height="60" as="geometry" />
        </mxCell>
        <mxCell id="VukwovRFUjxwsNXura6--12" style="edgeStyle=orthogonalEdgeStyle;shape=connector;rounded=0;orthogonalLoop=1;jettySize=auto;html=1;exitX=1;exitY=0;exitDx=0;exitDy=0;labelBackgroundColor=default;strokeColor=default;fontFamily=Helvetica;fontSize=11;fontColor=default;endArrow=none;endFill=0;entryX=-0.003;entryY=0.276;entryDx=0;entryDy=0;entryPerimeter=0;" parent="WIyWlLk6GJQsqaUBKTNV-1" source="VukwovRFUjxwsNXura6--6" target="VukwovRFUjxwsNXura6--4" edge="1">
          <mxGeometry relative="1" as="geometry">
            <mxPoint x="120" y="510" as="targetPoint" />
            <Array as="points">
              <mxPoint x="120" y="513" />
              <mxPoint x="135" y="514" />
            </Array>
          </mxGeometry>
        </mxCell>
        <mxCell id="VukwovRFUjxwsNXura6--14" value="&lt;b&gt;id_prerequisitos&lt;/b&gt;" style="edgeLabel;html=1;align=center;verticalAlign=middle;resizable=0;points=[];fontSize=11;fontFamily=Helvetica;fontColor=default;" parent="VukwovRFUjxwsNXura6--12" vertex="1" connectable="0">
          <mxGeometry x="-0.0681" y="1" relative="1" as="geometry">
            <mxPoint as="offset" />
          </mxGeometry>
        </mxCell>
        <mxCell id="VukwovRFUjxwsNXura6--13" style="edgeStyle=orthogonalEdgeStyle;shape=connector;rounded=0;orthogonalLoop=1;jettySize=auto;html=1;exitX=1;exitY=1;exitDx=0;exitDy=0;entryX=0.003;entryY=0.607;entryDx=0;entryDy=0;entryPerimeter=0;labelBackgroundColor=default;strokeColor=default;fontFamily=Helvetica;fontSize=11;fontColor=default;endArrow=none;endFill=0;" parent="WIyWlLk6GJQsqaUBKTNV-1" source="VukwovRFUjxwsNXura6--6" target="VukwovRFUjxwsNXura6--5" edge="1">
          <mxGeometry relative="1" as="geometry">
            <Array as="points">
              <mxPoint x="133" y="553" />
            </Array>
          </mxGeometry>
        </mxCell>
        <mxCell id="VukwovRFUjxwsNXura6--15" value="&lt;b&gt;id_disciplina&lt;/b&gt;" style="edgeLabel;html=1;align=center;verticalAlign=middle;resizable=0;points=[];fontSize=11;fontFamily=Helvetica;fontColor=default;" parent="VukwovRFUjxwsNXura6--13" vertex="1" connectable="0">
          <mxGeometry x="-0.0203" y="-1" relative="1" as="geometry">
            <mxPoint as="offset" />
          </mxGeometry>
        </mxCell>
        <mxCell id="VukwovRFUjxwsNXura6--6" value="prÃ©-requisitos" style="rhombus;whiteSpace=wrap;html=1;fontFamily=Helvetica;fontSize=11;fontColor=default;" parent="WIyWlLk6GJQsqaUBKTNV-1" vertex="1">
          <mxGeometry x="-80" y="493" width="80" height="80" as="geometry" />
        </mxCell>
        <mxCell id="VukwovRFUjxwsNXura6--20" style="edgeStyle=orthogonalEdgeStyle;shape=link;rounded=0;orthogonalLoop=1;jettySize=auto;html=1;exitX=1;exitY=0.5;exitDx=0;exitDy=0;entryX=-0.018;entryY=0.322;entryDx=0;entryDy=0;entryPerimeter=0;labelBackgroundColor=default;strokeColor=default;fontFamily=Helvetica;fontSize=11;fontColor=default;endArrow=none;endFill=0;" parent="WIyWlLk6GJQsqaUBKTNV-1" source="VukwovRFUjxwsNXura6--18" target="VukwovRFUjxwsNXura6--17" edge="1">
          <mxGeometry relative="1" as="geometry">
            <Array as="points">
              <mxPoint x="448" y="533" />
            </Array>
          </mxGeometry>
        </mxCell>
        <mxCell id="VukwovRFUjxwsNXura6--68" style="edgeStyle=orthogonalEdgeStyle;shape=connector;rounded=0;orthogonalLoop=1;jettySize=auto;html=1;exitX=0;exitY=0.5;exitDx=0;exitDy=0;entryX=1.021;entryY=0.281;entryDx=0;entryDy=0;entryPerimeter=0;labelBackgroundColor=default;strokeColor=default;fontFamily=Helvetica;fontSize=11;fontColor=default;endArrow=classic;endFill=1;" parent="WIyWlLk6GJQsqaUBKTNV-1" source="VukwovRFUjxwsNXura6--18" target="VukwovRFUjxwsNXura6--5" edge="1">
          <mxGeometry relative="1" as="geometry" />
        </mxCell>
        <mxCell id="VukwovRFUjxwsNXura6--23" value="Sala" style="swimlane;fontStyle=0;align=center;verticalAlign=top;childLayout=stackLayout;horizontal=1;startSize=26;horizontalStack=0;resizeParent=1;resizeLast=0;collapsible=1;marginBottom=0;rounded=0;shadow=0;strokeWidth=1;swimlaneLine=1;" parent="WIyWlLk6GJQsqaUBKTNV-1" vertex="1">
          <mxGeometry x="450" y="750" width="130" height="86" as="geometry">
            <mxRectangle x="340" y="380" width="170" height="26" as="alternateBounds" />
          </mxGeometry>
        </mxCell>
        <mxCell id="VukwovRFUjxwsNXura6--24" value="&lt;div&gt;&lt;b&gt;predio&lt;/b&gt;&lt;/div&gt;&lt;div&gt;&lt;b&gt;sala&lt;br&gt;&lt;/b&gt;&lt;/div&gt;&lt;div align=&quot;center&quot;&gt;capacidade&lt;br&gt;&lt;/div&gt;" style="text;html=1;align=center;verticalAlign=middle;resizable=0;points=[];autosize=1;strokeColor=none;fillColor=none;" parent="VukwovRFUjxwsNXura6--23" vertex="1">
          <mxGeometry y="26" width="130" height="60" as="geometry" />
        </mxCell>
        <mxCell id="VukwovRFUjxwsNXura6--26" value="Modelos" style="swimlane;fontStyle=0;align=center;verticalAlign=top;childLayout=stackLayout;horizontal=1;startSize=26;horizontalStack=0;resizeParent=1;resizeLast=0;collapsible=1;marginBottom=0;rounded=0;shadow=0;strokeWidth=1;swimlaneLine=1;" parent="WIyWlLk6GJQsqaUBKTNV-1" vertex="1">
          <mxGeometry x="-190" y="753" width="130" height="86" as="geometry">
            <mxRectangle x="340" y="380" width="170" height="26" as="alternateBounds" />
          </mxGeometry>
        </mxCell>
        <mxCell id="VukwovRFUjxwsNXura6--27" value="&lt;div&gt;&lt;b&gt;id_modelo&lt;/b&gt;&lt;/div&gt;&lt;div&gt;nome&lt;/div&gt;&lt;div&gt;marca&lt;/div&gt;" style="text;html=1;align=center;verticalAlign=middle;resizable=0;points=[];autosize=1;strokeColor=none;fillColor=none;" parent="VukwovRFUjxwsNXura6--26" vertex="1">
          <mxGeometry y="26" width="130" height="60" as="geometry" />
        </mxCell>
        <mxCell id="VukwovRFUjxwsNXura6--60" style="edgeStyle=orthogonalEdgeStyle;shape=link;rounded=0;orthogonalLoop=1;jettySize=auto;html=1;exitX=0.5;exitY=0;exitDx=0;exitDy=0;entryX=0.5;entryY=1;entryDx=0;entryDy=0;labelBackgroundColor=default;strokeColor=default;fontFamily=Helvetica;fontSize=11;fontColor=default;endArrow=none;endFill=0;" parent="WIyWlLk6GJQsqaUBKTNV-1" source="VukwovRFUjxwsNXura6--29" target="VukwovRFUjxwsNXura6--58" edge="1">
          <mxGeometry relative="1" as="geometry" />
        </mxCell>
        <mxCell id="VukwovRFUjxwsNXura6--61" style="edgeStyle=orthogonalEdgeStyle;shape=connector;rounded=0;orthogonalLoop=1;jettySize=auto;html=1;exitX=0.5;exitY=1;exitDx=0;exitDy=0;entryX=0.5;entryY=0;entryDx=0;entryDy=0;labelBackgroundColor=default;strokeColor=default;fontFamily=Helvetica;fontSize=11;fontColor=default;endArrow=classic;endFill=1;" parent="WIyWlLk6GJQsqaUBKTNV-1" source="VukwovRFUjxwsNXura6--29" target="VukwovRFUjxwsNXura6--23" edge="1">
          <mxGeometry relative="1" as="geometry" />
        </mxCell>
        <mxCell id="VukwovRFUjxwsNXura6--29" value="Ocorre em" style="rhombus;whiteSpace=wrap;html=1;fontFamily=Helvetica;fontSize=11;fontColor=default;" parent="WIyWlLk6GJQsqaUBKTNV-1" vertex="1">
          <mxGeometry x="475" y="630" width="80" height="80" as="geometry" />
        </mxCell>
        <mxCell id="VukwovRFUjxwsNXura6--30" value="Aluno" style="swimlane;fontStyle=0;align=center;verticalAlign=top;childLayout=stackLayout;horizontal=1;startSize=26;horizontalStack=0;resizeParent=1;resizeLast=0;collapsible=1;marginBottom=0;rounded=0;shadow=0;strokeWidth=1;swimlaneLine=1;" parent="WIyWlLk6GJQsqaUBKTNV-1" vertex="1">
          <mxGeometry x="560" y="181" width="130" height="136" as="geometry">
            <mxRectangle x="340" y="380" width="170" height="26" as="alternateBounds" />
          </mxGeometry>
        </mxCell>
        <mxCell id="VukwovRFUjxwsNXura6--31" value="&lt;div align=&quot;center&quot;&gt;&lt;b&gt;id_aluno&lt;/b&gt;&lt;/div&gt;&lt;div align=&quot;center&quot;&gt;nome&lt;/div&gt;&lt;div align=&quot;center&quot;&gt;cpf&lt;/div&gt;&lt;div align=&quot;center&quot;&gt;&lt;u&gt;endereco&lt;/u&gt;&lt;/div&gt;&lt;div align=&quot;center&quot;&gt;&lt;u&gt;telefone&lt;/u&gt;&lt;/div&gt;&lt;div align=&quot;center&quot;&gt;sexo&lt;/div&gt;&lt;div align=&quot;center&quot;&gt;raca&lt;br&gt;&lt;/div&gt;" style="text;html=1;align=center;verticalAlign=middle;resizable=0;points=[];autosize=1;strokeColor=none;fillColor=none;" parent="VukwovRFUjxwsNXura6--30" vertex="1">
          <mxGeometry y="26" width="130" height="110" as="geometry" />
        </mxCell>
        <mxCell id="VukwovRFUjxwsNXura6--32" value="Professor" style="swimlane;fontStyle=0;align=center;verticalAlign=top;childLayout=stackLayout;horizontal=1;startSize=26;horizontalStack=0;resizeParent=1;resizeLast=0;collapsible=1;marginBottom=0;rounded=0;shadow=0;strokeWidth=1;swimlaneLine=1;" parent="WIyWlLk6GJQsqaUBKTNV-1" vertex="1">
          <mxGeometry x="335" y="186" width="130" height="130" as="geometry">
            <mxRectangle x="340" y="380" width="170" height="26" as="alternateBounds" />
          </mxGeometry>
        </mxCell>
        <mxCell id="VukwovRFUjxwsNXura6--33" value="&lt;div align=&quot;center&quot;&gt;&lt;b&gt;id_professor&lt;/b&gt;&lt;/div&gt;&lt;div align=&quot;center&quot;&gt;nome&lt;/div&gt;&lt;div align=&quot;center&quot;&gt;cpf&lt;/div&gt;&lt;div align=&quot;center&quot;&gt;&lt;u&gt;endereco&lt;/u&gt;&lt;/div&gt;&lt;div align=&quot;center&quot;&gt;&lt;u&gt;telefone&lt;/u&gt;&lt;/div&gt;&lt;div align=&quot;center&quot;&gt;sexo&lt;/div&gt;" style="text;html=1;align=center;verticalAlign=middle;resizable=0;points=[];autosize=1;strokeColor=none;fillColor=none;" parent="VukwovRFUjxwsNXura6--32" vertex="1">
          <mxGeometry y="26" width="130" height="100" as="geometry" />
        </mxCell>
        <mxCell id="VukwovRFUjxwsNXura6--39" style="edgeStyle=orthogonalEdgeStyle;shape=connector;rounded=0;orthogonalLoop=1;jettySize=auto;html=1;exitX=0.5;exitY=1;exitDx=0;exitDy=0;entryX=0.25;entryY=0;entryDx=0;entryDy=0;labelBackgroundColor=default;strokeColor=default;fontFamily=Helvetica;fontSize=11;fontColor=default;endArrow=none;endFill=0;" parent="WIyWlLk6GJQsqaUBKTNV-1" source="VukwovRFUjxwsNXura6--35" target="VukwovRFUjxwsNXura6--16" edge="1">
          <mxGeometry relative="1" as="geometry" />
        </mxCell>
        <mxCell id="VukwovRFUjxwsNXura6--41" style="edgeStyle=orthogonalEdgeStyle;shape=connector;rounded=0;orthogonalLoop=1;jettySize=auto;html=1;exitX=0.5;exitY=0;exitDx=0;exitDy=0;entryX=0.5;entryY=1;entryDx=0;entryDy=0;labelBackgroundColor=default;strokeColor=default;fontFamily=Helvetica;fontSize=11;fontColor=default;endArrow=none;endFill=0;" parent="WIyWlLk6GJQsqaUBKTNV-1" source="VukwovRFUjxwsNXura6--35" target="VukwovRFUjxwsNXura6--32" edge="1">
          <mxGeometry relative="1" as="geometry" />
        </mxCell>
        <mxCell id="VukwovRFUjxwsNXura6--35" value="Ministra" style="rhombus;whiteSpace=wrap;html=1;fontFamily=Helvetica;fontSize=11;fontColor=default;" parent="WIyWlLk6GJQsqaUBKTNV-1" vertex="1">
          <mxGeometry x="360" y="350" width="80" height="80" as="geometry" />
        </mxCell>
        <mxCell id="VukwovRFUjxwsNXura6--42" style="edgeStyle=orthogonalEdgeStyle;shape=connector;rounded=0;orthogonalLoop=1;jettySize=auto;html=1;exitX=0.5;exitY=0;exitDx=0;exitDy=0;entryX=0.495;entryY=0.994;entryDx=0;entryDy=0;entryPerimeter=0;labelBackgroundColor=default;strokeColor=default;fontFamily=Helvetica;fontSize=11;fontColor=default;endArrow=none;endFill=0;" parent="WIyWlLk6GJQsqaUBKTNV-1" source="VukwovRFUjxwsNXura6--36" target="VukwovRFUjxwsNXura6--31" edge="1">
          <mxGeometry relative="1" as="geometry" />
        </mxCell>
        <mxCell id="VukwovRFUjxwsNXura6--47" style="edgeStyle=orthogonalEdgeStyle;shape=connector;rounded=0;orthogonalLoop=1;jettySize=auto;html=1;exitX=0.5;exitY=1;exitDx=0;exitDy=0;entryX=0.75;entryY=0;entryDx=0;entryDy=0;labelBackgroundColor=default;strokeColor=default;fontFamily=Helvetica;fontSize=11;fontColor=default;endArrow=none;endFill=0;" parent="WIyWlLk6GJQsqaUBKTNV-1" source="VukwovRFUjxwsNXura6--36" target="VukwovRFUjxwsNXura6--16" edge="1">
          <mxGeometry relative="1" as="geometry" />
        </mxCell>
        <mxCell id="VukwovRFUjxwsNXura6--96" style="edgeStyle=orthogonalEdgeStyle;shape=connector;rounded=0;orthogonalLoop=1;jettySize=auto;html=1;exitX=1;exitY=0.5;exitDx=0;exitDy=0;entryX=0;entryY=0.5;entryDx=0;entryDy=0;labelBackgroundColor=default;strokeColor=default;fontFamily=Helvetica;fontSize=11;fontColor=default;endArrow=none;endFill=0;dashed=1;" parent="WIyWlLk6GJQsqaUBKTNV-1" source="VukwovRFUjxwsNXura6--36" target="VukwovRFUjxwsNXura6--95" edge="1">
          <mxGeometry relative="1" as="geometry" />
        </mxCell>
        <mxCell id="VukwovRFUjxwsNXura6--36" value="Cursa" style="rhombus;whiteSpace=wrap;html=1;fontFamily=Helvetica;fontSize=11;fontColor=default;" parent="WIyWlLk6GJQsqaUBKTNV-1" vertex="1">
          <mxGeometry x="585" y="350" width="80" height="80" as="geometry" />
        </mxCell>
        <mxCell id="VukwovRFUjxwsNXura6--59" value="" style="group" parent="WIyWlLk6GJQsqaUBKTNV-1" vertex="1" connectable="0">
          <mxGeometry x="440" y="478" width="150" height="112" as="geometry" />
        </mxCell>
        <mxCell id="VukwovRFUjxwsNXura6--58" value="" style="rounded=0;whiteSpace=wrap;html=1;fontFamily=Helvetica;fontSize=11;fontColor=default;" parent="VukwovRFUjxwsNXura6--59" vertex="1">
          <mxGeometry width="150" height="111.99999999999999" as="geometry" />
        </mxCell>
        <mxCell id="VukwovRFUjxwsNXura6--16" value="Oferta" style="swimlane;fontStyle=0;align=center;verticalAlign=top;childLayout=stackLayout;horizontal=1;startSize=26;horizontalStack=0;resizeParent=1;resizeLast=0;collapsible=1;marginBottom=0;rounded=0;shadow=0;strokeWidth=1;swimlaneLine=1;" parent="VukwovRFUjxwsNXura6--59" vertex="1">
          <mxGeometry x="10" y="12.218181818181817" width="130" height="87.56363636363635" as="geometry">
            <mxRectangle x="340" y="380" width="170" height="26" as="alternateBounds" />
          </mxGeometry>
        </mxCell>
        <mxCell id="VukwovRFUjxwsNXura6--17" value="&lt;div align=&quot;center&quot;&gt;&lt;b&gt;id_oferta&lt;/b&gt;&lt;/div&gt;&lt;div align=&quot;center&quot;&gt;&lt;b&gt;semestre&lt;/b&gt;&lt;/div&gt;&lt;div align=&quot;center&quot;&gt;&lt;b&gt;ano&lt;br&gt;&lt;/b&gt;&lt;/div&gt;" style="text;html=1;align=center;verticalAlign=middle;resizable=0;points=[];autosize=1;strokeColor=none;fillColor=none;" parent="VukwovRFUjxwsNXura6--16" vertex="1">
          <mxGeometry y="26" width="130" height="60" as="geometry" />
        </mxCell>
        <mxCell id="VukwovRFUjxwsNXura6--65" style="edgeStyle=orthogonalEdgeStyle;shape=link;rounded=0;orthogonalLoop=1;jettySize=auto;html=1;exitX=0;exitY=0.5;exitDx=0;exitDy=0;entryX=1;entryY=0.5;entryDx=0;entryDy=0;labelBackgroundColor=default;strokeColor=default;fontFamily=Helvetica;fontSize=11;fontColor=default;endArrow=none;endFill=0;" parent="WIyWlLk6GJQsqaUBKTNV-1" source="VukwovRFUjxwsNXura6--62" target="VukwovRFUjxwsNXura6--58" edge="1">
          <mxGeometry relative="1" as="geometry" />
        </mxCell>
        <mxCell id="VukwovRFUjxwsNXura6--76" style="edgeStyle=orthogonalEdgeStyle;shape=connector;rounded=0;orthogonalLoop=1;jettySize=auto;html=1;exitX=1;exitY=0.5;exitDx=0;exitDy=0;entryX=0;entryY=0.25;entryDx=0;entryDy=0;labelBackgroundColor=default;strokeColor=default;fontFamily=Helvetica;fontSize=11;fontColor=default;endArrow=none;endFill=0;" parent="WIyWlLk6GJQsqaUBKTNV-1" source="VukwovRFUjxwsNXura6--62" target="VukwovRFUjxwsNXura6--63" edge="1">
          <mxGeometry relative="1" as="geometry" />
        </mxCell>
        <mxCell id="VukwovRFUjxwsNXura6--62" value="Ocorre em" style="rhombus;whiteSpace=wrap;html=1;fontFamily=Helvetica;fontSize=11;fontColor=default;" parent="WIyWlLk6GJQsqaUBKTNV-1" vertex="1">
          <mxGeometry x="640" y="493" width="80" height="80" as="geometry" />
        </mxCell>
        <mxCell id="VukwovRFUjxwsNXura6--63" value="PerÃ­odo" style="swimlane;fontStyle=0;align=center;verticalAlign=top;childLayout=stackLayout;horizontal=1;startSize=26;horizontalStack=0;resizeParent=1;resizeLast=0;collapsible=1;marginBottom=0;rounded=0;shadow=0;strokeWidth=1;swimlaneLine=1;" parent="WIyWlLk6GJQsqaUBKTNV-1" vertex="1">
          <mxGeometry x="760" y="500" width="130" height="66" as="geometry">
            <mxRectangle x="340" y="380" width="170" height="26" as="alternateBounds" />
          </mxGeometry>
        </mxCell>
        <mxCell id="VukwovRFUjxwsNXura6--64" value="&lt;div align=&quot;center&quot;&gt;&lt;b&gt;id_periodo&lt;/b&gt;&lt;/div&gt;&lt;div align=&quot;center&quot;&gt;&lt;u&gt;horario&lt;/u&gt;&lt;br&gt;&lt;/div&gt;" style="text;html=1;align=center;verticalAlign=middle;resizable=0;points=[];autosize=1;strokeColor=none;fillColor=none;" parent="VukwovRFUjxwsNXura6--63" vertex="1">
          <mxGeometry y="26" width="130" height="40" as="geometry" />
        </mxCell>
        <mxCell id="VukwovRFUjxwsNXura6--72" style="edgeStyle=orthogonalEdgeStyle;shape=connector;rounded=0;orthogonalLoop=1;jettySize=auto;html=1;exitX=0.5;exitY=0;exitDx=0;exitDy=0;entryX=0.25;entryY=1;entryDx=0;entryDy=0;labelBackgroundColor=default;strokeColor=default;fontFamily=Helvetica;fontSize=11;fontColor=default;endArrow=classic;endFill=1;" parent="WIyWlLk6GJQsqaUBKTNV-1" source="VukwovRFUjxwsNXura6--69" target="zkfFHV4jXpPFQw0GAbJ--13" edge="1">
          <mxGeometry relative="1" as="geometry" />
        </mxCell>
        <mxCell id="VukwovRFUjxwsNXura6--75" style="edgeStyle=orthogonalEdgeStyle;shape=link;rounded=0;orthogonalLoop=1;jettySize=auto;html=1;exitX=0.5;exitY=1;exitDx=0;exitDy=0;entryX=0.5;entryY=0;entryDx=0;entryDy=0;labelBackgroundColor=default;strokeColor=default;fontFamily=Helvetica;fontSize=11;fontColor=default;endArrow=none;endFill=0;" parent="WIyWlLk6GJQsqaUBKTNV-1" source="VukwovRFUjxwsNXura6--69" target="VukwovRFUjxwsNXura6--32" edge="1">
          <mxGeometry relative="1" as="geometry" />
        </mxCell>
        <mxCell id="VukwovRFUjxwsNXura6--69" value="Tem" style="rhombus;whiteSpace=wrap;html=1;fontFamily=Helvetica;fontSize=11;fontColor=default;" parent="WIyWlLk6GJQsqaUBKTNV-1" vertex="1">
          <mxGeometry x="360" y="50" width="80" height="80" as="geometry" />
        </mxCell>
        <mxCell id="VukwovRFUjxwsNXura6--73" style="edgeStyle=orthogonalEdgeStyle;shape=connector;rounded=0;orthogonalLoop=1;jettySize=auto;html=1;exitX=0.5;exitY=0;exitDx=0;exitDy=0;entryX=0.75;entryY=1;entryDx=0;entryDy=0;labelBackgroundColor=default;strokeColor=default;fontFamily=Helvetica;fontSize=11;fontColor=default;endArrow=classic;endFill=1;" parent="WIyWlLk6GJQsqaUBKTNV-1" source="VukwovRFUjxwsNXura6--70" target="zkfFHV4jXpPFQw0GAbJ--13" edge="1">
          <mxGeometry relative="1" as="geometry" />
        </mxCell>
        <mxCell id="VukwovRFUjxwsNXura6--74" style="edgeStyle=orthogonalEdgeStyle;shape=link;rounded=0;orthogonalLoop=1;jettySize=auto;html=1;exitX=0.5;exitY=1;exitDx=0;exitDy=0;entryX=0.5;entryY=0;entryDx=0;entryDy=0;labelBackgroundColor=default;strokeColor=default;fontFamily=Helvetica;fontSize=11;fontColor=default;endArrow=none;endFill=0;" parent="WIyWlLk6GJQsqaUBKTNV-1" source="VukwovRFUjxwsNXura6--70" target="VukwovRFUjxwsNXura6--30" edge="1">
          <mxGeometry relative="1" as="geometry" />
        </mxCell>
        <mxCell id="VukwovRFUjxwsNXura6--70" value="Tem" style="rhombus;whiteSpace=wrap;html=1;fontFamily=Helvetica;fontSize=11;fontColor=default;" parent="WIyWlLk6GJQsqaUBKTNV-1" vertex="1">
          <mxGeometry x="585" y="50" width="80" height="80" as="geometry" />
        </mxCell>
        <mxCell id="VukwovRFUjxwsNXura6--81" value="Equipamento" style="swimlane;fontStyle=0;align=center;verticalAlign=top;childLayout=stackLayout;horizontal=1;startSize=26;horizontalStack=0;resizeParent=1;resizeLast=0;collapsible=1;marginBottom=0;rounded=0;shadow=0;strokeWidth=1;swimlaneLine=1;" parent="WIyWlLk6GJQsqaUBKTNV-1" vertex="1">
          <mxGeometry x="135" y="753" width="130" height="86" as="geometry">
            <mxRectangle x="340" y="380" width="170" height="26" as="alternateBounds" />
          </mxGeometry>
        </mxCell>
        <mxCell id="VukwovRFUjxwsNXura6--82" value="&lt;div align=&quot;center&quot;&gt;&lt;b&gt;id_equipamento&lt;/b&gt;&lt;/div&gt;&lt;div align=&quot;center&quot;&gt;id_modelo&lt;/div&gt;&lt;div align=&quot;center&quot;&gt;data_aquisicao&lt;br&gt;&lt;/div&gt;" style="text;html=1;align=center;verticalAlign=middle;resizable=0;points=[];autosize=1;strokeColor=none;fillColor=none;" parent="VukwovRFUjxwsNXura6--81" vertex="1">
          <mxGeometry y="26" width="130" height="60" as="geometry" />
        </mxCell>
        <mxCell id="VukwovRFUjxwsNXura6--87" style="edgeStyle=orthogonalEdgeStyle;shape=connector;rounded=0;orthogonalLoop=1;jettySize=auto;html=1;exitX=0;exitY=0.5;exitDx=0;exitDy=0;entryX=1.014;entryY=0.289;entryDx=0;entryDy=0;entryPerimeter=0;labelBackgroundColor=default;strokeColor=default;fontFamily=Helvetica;fontSize=11;fontColor=default;endArrow=classic;endFill=1;" parent="WIyWlLk6GJQsqaUBKTNV-1" source="VukwovRFUjxwsNXura6--85" target="VukwovRFUjxwsNXura6--27" edge="1">
          <mxGeometry relative="1" as="geometry" />
        </mxCell>
        <mxCell id="VukwovRFUjxwsNXura6--94" style="edgeStyle=orthogonalEdgeStyle;shape=link;rounded=0;orthogonalLoop=1;jettySize=auto;html=1;exitX=1;exitY=0.5;exitDx=0;exitDy=0;entryX=-0.007;entryY=0.291;entryDx=0;entryDy=0;entryPerimeter=0;labelBackgroundColor=default;strokeColor=default;fontFamily=Helvetica;fontSize=11;fontColor=default;endArrow=none;endFill=0;" parent="WIyWlLk6GJQsqaUBKTNV-1" source="VukwovRFUjxwsNXura6--85" target="VukwovRFUjxwsNXura6--82" edge="1">
          <mxGeometry relative="1" as="geometry">
            <Array as="points">
              <mxPoint x="134" y="796" />
            </Array>
          </mxGeometry>
        </mxCell>
        <mxCell id="VukwovRFUjxwsNXura6--85" value="pertence a" style="rhombus;whiteSpace=wrap;html=1;fontFamily=Helvetica;fontSize=11;fontColor=default;" parent="WIyWlLk6GJQsqaUBKTNV-1" vertex="1">
          <mxGeometry y="756" width="80" height="80" as="geometry" />
        </mxCell>
        <mxCell id="VukwovRFUjxwsNXura6--91" style="edgeStyle=orthogonalEdgeStyle;shape=connector;rounded=0;orthogonalLoop=1;jettySize=auto;html=1;exitX=1;exitY=0.5;exitDx=0;exitDy=0;entryX=-0.005;entryY=0.297;entryDx=0;entryDy=0;entryPerimeter=0;labelBackgroundColor=default;strokeColor=default;fontFamily=Helvetica;fontSize=11;fontColor=default;endArrow=classic;endFill=1;" parent="WIyWlLk6GJQsqaUBKTNV-1" source="VukwovRFUjxwsNXura6--86" target="VukwovRFUjxwsNXura6--24" edge="1">
          <mxGeometry relative="1" as="geometry" />
        </mxCell>
        <mxCell id="VukwovRFUjxwsNXura6--93" style="edgeStyle=orthogonalEdgeStyle;shape=link;rounded=0;orthogonalLoop=1;jettySize=auto;html=1;exitX=0;exitY=0.5;exitDx=0;exitDy=0;entryX=1.014;entryY=0.219;entryDx=0;entryDy=0;entryPerimeter=0;labelBackgroundColor=default;strokeColor=default;fontFamily=Helvetica;fontSize=11;fontColor=default;endArrow=none;endFill=0;" parent="WIyWlLk6GJQsqaUBKTNV-1" source="VukwovRFUjxwsNXura6--86" target="VukwovRFUjxwsNXura6--82" edge="1">
          <mxGeometry relative="1" as="geometry" />
        </mxCell>
        <mxCell id="VukwovRFUjxwsNXura6--86" value="estÃ¡ em" style="rhombus;whiteSpace=wrap;html=1;fontFamily=Helvetica;fontSize=11;fontColor=default;" parent="WIyWlLk6GJQsqaUBKTNV-1" vertex="1">
          <mxGeometry x="320" y="753" width="80" height="80" as="geometry" />
        </mxCell>
        <mxCell id="VukwovRFUjxwsNXura6--95" value="&lt;div&gt;nota&lt;/div&gt;&lt;div&gt;presenca&lt;br&gt;&lt;/div&gt;" style="rounded=0;whiteSpace=wrap;html=1;fontFamily=Helvetica;fontSize=11;fontColor=default;" parent="WIyWlLk6GJQsqaUBKTNV-1" vertex="1">
          <mxGeometry x="700" y="370" width="60" height="40" as="geometry" />
        </mxCell>
        <mxCell id="rvBI4Uhj19xE3W1wKUVM-1" value="" style="group" vertex="1" connectable="0" parent="WIyWlLk6GJQsqaUBKTNV-1">
          <mxGeometry x="303.5" y="486.5" width="93" height="93" as="geometry" />
        </mxCell>
        <mxCell id="rvBI4Uhj19xE3W1wKUVM-0" value="" style="rhombus;whiteSpace=wrap;html=1;" vertex="1" parent="rvBI4Uhj19xE3W1wKUVM-1">
          <mxGeometry width="93" height="93" as="geometry" />
        </mxCell>
        <mxCell id="VukwovRFUjxwsNXura6--18" value="&lt;div&gt;Possui&lt;/div&gt;" style="rhombus;whiteSpace=wrap;html=1;fontFamily=Helvetica;fontSize=11;fontColor=default;fillStyle=auto;" parent="rvBI4Uhj19xE3W1wKUVM-1" vertex="1">
          <mxGeometry x="6.5" y="6.5" width="80" height="80" as="geometry" />
        </mxCell>
      </root>
    </mxGraphModel>
  </diagram>
</mxfile>
